<?xml version="1.0" standalone="no"?>
<!DOCTYPE svg PUBLIC "-//W3C//DTD SVG 20010904//EN"
 "http://www.w3.org/TR/2001/REC-SVG-20010904/DTD/svg10.dtd">
<svg version="1.0" xmlns="http://www.w3.org/2000/svg"
 width="968.000000pt" height="1012.000000pt" viewBox="0 0 968.000000 1012.000000"
 preserveAspectRatio="xMidYMid meet">

<g transform="translate(0.000000,1012.000000) scale(0.100000,-0.100000)"
fill="#000000" stroke="none">
<path d="M7021 8137 c-2 -44 -37 -135 -81 -208 -34 -55 -45 -67 -65 -65 -20 3
-23 -1 -23 -28 1 -17 -6 -49 -15 -71 -9 -22 -16 -59 -17 -82 0 -39 -2 -43 -25
-43 -25 0 -25 1 -27 98 -1 78 -3 84 -5 32 -2 -36 -8 -69 -13 -74 -14 -15 -28
32 -44 156 l-15 113 6 -125 c5 -133 -2 -147 -31 -55 -15 48 -16 48 -11 10 3
-22 13 -62 22 -88 8 -27 13 -51 10 -54 -11 -10 -45 8 -50 27 -3 12 -14 20 -26
20 -12 0 -21 5 -21 10 0 6 -4 10 -10 10 -6 0 -6 -9 0 -25 10 -27 -2 -42 -18
-22 -5 6 -19 44 -31 82 -19 63 -20 66 -18 28 1 -24 -1 -43 -5 -43 -9 0 -22 51
-39 148 -22 129 -39 96 -19 -38 6 -43 6 -68 -1 -77 -6 -6 -8 -21 -4 -33 8 -25
-10 -27 -25 -2 -9 14 -10 13 -4 -8 3 -14 13 -38 21 -53 17 -34 9 -87 -20 -117
l-20 -23 -14 27 c-16 31 -23 34 -16 6 9 -35 -20 -14 -77 55 -30 36 -67 86 -82
112 -17 28 -26 37 -22 23 11 -40 39 -91 83 -149 48 -64 56 -98 14 -60 -15 13
-31 29 -35 34 -5 7 -8 6 -8 -1 0 -5 16 -25 35 -44 19 -18 32 -37 29 -41 -2 -4
0 -10 6 -14 5 -3 10 -13 10 -22 0 -9 -3 -13 -6 -10 -4 3 -14 2 -24 -3 -17 -9
-70 5 -134 36 l-31 15 28 -21 c45 -36 31 -41 -39 -14 -98 36 -109 26 -27 -24
92 -56 126 -88 120 -111 -2 -11 3 -24 14 -32 11 -7 19 -24 19 -37 0 -18 -3
-22 -12 -14 -36 29 -152 54 -258 56 -124 1 -123 -6 5 -28 96 -17 130 -33 62
-30 -27 2 -31 1 -12 -2 17 -3 48 -10 70 -16 22 -7 42 -11 45 -10 18 3 107 -57
118 -81 19 -39 9 -44 -37 -19 -33 19 -40 20 -45 7 -3 -8 0 -15 6 -15 9 0 9 -3
1 -11 -14 -14 -181 -39 -268 -39 -53 -1 -66 -3 -52 -11 12 -7 50 -7 124 0 59
6 136 11 173 11 85 0 108 -19 139 -116 22 -66 22 -73 8 -101 -18 -33 -76 -89
-137 -129 -46 -31 -53 -41 -12 -20 53 28 112 76 134 110 31 47 54 52 73 16 8
-16 15 -34 15 -40 0 -5 19 -28 41 -49 l42 -39 -21 -34 c-29 -46 -132 -143
-214 -202 -38 -26 -68 -50 -68 -53 0 -10 135 70 192 113 52 41 78 67 137 144
13 16 23 22 29 15 16 -17 -13 -107 -63 -190 -45 -77 -58 -111 -20 -54 11 16
26 29 33 29 15 0 15 -9 -3 -40 -8 -14 -14 -32 -14 -40 0 -17 58 99 59 117 0 6
4 14 9 17 5 4 8 -4 7 -16 -5 -43 -29 -103 -88 -222 -33 -65 -57 -120 -54 -123
3 -3 44 74 91 171 47 97 88 176 91 176 8 0 -8 -73 -23 -102 -12 -25 -12 -28 2
-28 8 0 15 -8 15 -17 1 -27 26 35 33 82 17 103 57 175 98 175 23 0 25 -13 4
-30 -17 -14 -9 -34 11 -26 9 3 15 -6 20 -32 17 -103 96 -349 134 -421 33 -63
22 -14 -41 171 -60 177 -84 298 -60 298 6 0 11 -4 11 -9 0 -5 9 -11 19 -14 14
-3 18 -1 14 9 -3 8 0 21 6 28 10 12 21 12 72 0 65 -15 100 -30 97 -42 -5 -19
15 -102 24 -102 6 0 8 3 5 7 -4 3 -2 12 3 18 7 8 5 24 -5 48 -11 27 -12 38 -3
43 7 4 13 3 15 -3 14 -41 83 -127 139 -173 37 -30 75 -71 85 -90 17 -31 19
-32 19 -10 0 17 -24 47 -84 105 -83 80 -133 153 -122 182 4 9 14 13 26 10 11
-3 17 -1 14 4 -3 5 2 12 12 16 12 4 25 -2 41 -21 12 -15 23 -24 23 -20 0 4
-10 18 -22 31 l-21 23 37 15 c21 9 39 15 40 13 24 -38 82 -106 88 -102 5 3 -5
22 -22 42 -16 20 -30 48 -30 62 1 25 1 25 33 -10 17 -19 53 -60 80 -90 26 -30
47 -52 47 -49 0 4 -29 46 -65 94 -61 82 -79 115 -54 99 8 -4 9 0 4 15 -7 22
10 29 31 14 5 -5 -3 3 -18 17 -33 30 -35 45 -8 60 31 17 51 9 96 -37 39 -41
64 -57 48 -31 -9 14 6 5 71 -43 28 -20 59 -46 69 -58 11 -11 24 -21 30 -21 5
0 -8 19 -29 41 -26 27 -36 43 -27 46 7 3 -5 17 -30 34 -24 16 -70 53 -103 83
-59 54 -68 80 -21 58 21 -9 24 -9 19 5 -5 12 -1 14 18 8 23 -7 23 -7 4 8 -34
26 -13 26 65 0 41 -13 102 -27 135 -29 68 -5 67 -4 -32 25 -68 20 -83 34 -60
57 4 4 7 15 7 25 0 14 -11 19 -47 24 -27 3 -54 7 -62 8 -8 1 -16 8 -19 15 -2
8 10 12 42 12 24 0 47 4 51 9 3 5 30 22 60 37 30 16 90 57 133 91 42 35 104
84 137 110 85 66 88 71 20 33 -33 -18 -99 -63 -147 -101 -93 -73 -161 -114
-166 -100 -2 5 -12 6 -24 3 -13 -3 -19 -1 -15 5 5 8 -7 9 -35 6 -31 -5 -39 -3
-33 7 5 9 2 10 -14 5 -25 -8 -30 19 -5 29 12 5 13 8 2 19 -7 8 -19 14 -28 13
-9 -1 -18 14 -25 40 -5 23 -16 49 -24 58 -13 16 -11 20 15 42 l29 24 -29 -15
c-34 -16 -51 -8 -60 30 -7 29 30 66 157 158 102 72 106 77 32 36 -77 -42 -167
-102 -184 -123 -14 -17 -46 -23 -37 -7 4 5 1 11 -5 13 -6 2 1 19 15 41 17 25
21 37 12 37 -7 0 -20 -10 -28 -22 -22 -33 -39 -14 -33 38 7 51 17 65 136 183
59 58 96 106 116 146 45 91 50 133 7 52 -41 -76 -111 -160 -128 -154 -6 2 -18
-4 -26 -13 -8 -9 -23 -19 -32 -23 -12 -4 -6 10 18 44 31 43 25 38 -50 -36 -98
-97 -158 -132 -193 -114 -17 9 -32 10 -58 2 -40 -13 -42 -10 -15 19 10 12 17
25 14 30 -3 5 10 23 29 41 18 17 59 56 91 86 31 30 66 72 77 95 l20 41 -23
-30 c-29 -39 -63 -72 -179 -175 -85 -75 -95 -88 -88 -107 12 -31 -8 -30 -42 3
-37 35 -30 87 23 179 23 39 43 73 45 78 2 4 2 7 -1 7 -3 0 -24 -33 -47 -72
-70 -120 -57 -56 19 93 71 139 88 186 79 230 -4 22 -4 22 -6 -4z"/>
<path d="M8439 8087 c-114 -38 -138 -53 -176 -108 -15 -23 -36 -43 -45 -45
-27 -3 -22 13 10 31 15 9 19 14 10 11 -10 -3 -41 -8 -68 -12 -46 -6 -53 -10
-70 -44 -10 -20 -26 -43 -36 -51 -16 -13 -16 -12 -1 18 9 17 21 35 27 38 24
15 7 24 -20 10 -43 -22 -60 -53 -71 -132 -6 -37 -22 -88 -35 -112 -13 -24 -24
-50 -24 -58 0 -22 58 16 70 47 9 22 10 20 5 -15 -3 -31 -14 -49 -49 -83 -51
-48 -76 -81 -76 -99 0 -24 29 -13 62 23 37 42 80 62 150 73 69 11 59 -4 -12
-19 -33 -7 -63 -17 -67 -22 -3 -6 3 -8 13 -5 11 3 35 8 54 12 52 9 16 -10 -48
-25 -28 -6 -55 -17 -59 -23 -3 -6 -1 -7 5 -3 7 4 12 2 12 -3 0 -6 -10 -11 -22
-11 -20 -1 -20 -2 -7 -10 11 -7 43 -3 100 11 100 24 142 44 155 73 5 12 47 40
96 66 48 25 88 49 88 53 0 4 -10 3 -22 -3 -20 -10 -19 -7 5 14 28 26 36 42 15
31 -7 -4 1 5 17 19 17 15 24 26 16 26 -11 0 -10 5 4 20 9 10 22 18 28 17 6 -1
13 7 15 18 4 18 3 18 -14 5 -18 -15 -18 -14 -1 13 10 15 15 27 12 27 -3 0 -17
-12 -31 -27 l-25 -28 21 43 c21 44 20 109 -2 96 -6 -4 -6 0 0 12 6 11 16 33
22 51 7 17 30 50 53 72 22 23 34 41 26 40 -7 0 -57 -14 -110 -32z m-308 -170
c-8 -8 -11 -7 -11 4 0 9 3 19 7 23 4 4 9 2 11 -4 3 -7 -1 -17 -7 -23z m299 -6
c-11 -21 -30 -37 -30 -25 0 8 30 44 37 44 2 0 -1 -9 -7 -19z m16 -30 c-18 -33
-65 -81 -80 -81 -6 0 6 17 26 38 20 20 41 48 48 60 6 13 14 21 17 19 2 -3 -3
-19 -11 -36z"/>
<path d="M2000 7986 c0 -2 7 -9 15 -16 12 -10 15 -10 15 4 0 9 -7 16 -15 16
-8 0 -15 -2 -15 -4z"/>
<path d="M1900 7896 c0 -9 5 -16 10 -16 6 0 10 4 10 9 0 6 -4 13 -10 16 -5 3
-10 -1 -10 -9z"/>
<path d="M7555 7847 c-33 -21 -51 -40 -53 -56 l-4 -24 34 20 c18 11 39 18 46
16 6 -3 12 2 12 10 0 8 7 20 15 27 16 13 21 40 7 40 -4 0 -30 -15 -57 -33z"/>
<path d="M5949 7855 c5 -11 17 -29 26 -40 l16 -20 -10 20 c-5 11 -17 29 -26
40 l-16 20 10 -20z"/>
<path d="M5936 7797 c3 -10 9 -15 12 -12 3 3 0 11 -7 18 -10 9 -11 8 -5 -6z"/>
<path d="M8563 7717 c-45 -22 -70 -64 -30 -52 12 3 38 8 57 10 19 1 48 8 63
14 45 18 55 12 17 -9 -38 -21 -20 -27 26 -10 25 10 26 9 13 -6 -12 -15 -12
-16 6 -11 11 3 37 9 59 13 30 5 35 9 22 16 -9 5 -21 6 -26 3 -6 -3 -10 -2 -10
3 0 10 -50 23 -89 22 -14 0 -34 6 -45 14 -18 11 -27 11 -63 -7z"/>
<path d="M5970 7726 c0 -4 11 -28 24 -54 27 -53 61 -89 70 -73 4 5 0 13 -7 18
-8 4 -30 32 -50 62 -21 29 -37 50 -37 47z"/>
<path d="M5848 7687 c12 -13 22 -28 22 -33 0 -9 36 -27 93 -44 42 -13 34 9
-20 60 -27 25 -42 38 -35 31 23 -27 12 -32 -28 -11 -51 26 -58 25 -32 -3z"/>
<path d="M1810 7645 c0 -14 4 -25 9 -25 4 0 6 11 3 25 -2 14 -6 25 -8 25 -2 0
-4 -11 -4 -25z"/>
<path d="M1846 7655 c-3 -9 -6 -24 -5 -33 0 -9 5 -4 10 12 9 32 6 48 -5 21z"/>
<path d="M8755 7624 c-83 -24 -135 -45 -135 -54 0 -8 18 -4 93 21 17 6 54 12
80 13 41 1 45 -1 30 -11 -15 -11 -12 -13 23 -12 21 0 48 4 59 9 18 7 18 9 3
15 -9 4 -22 3 -29 -1 -8 -4 -9 -3 -5 4 5 8 0 12 -13 12 -11 0 -23 5 -26 10 -8
13 -19 12 -80 -6z"/>
<path d="M1874 7622 c4 -3 14 -7 22 -8 9 -1 13 0 10 4 -4 3 -14 7 -22 8 -9 1
-13 0 -10 -4z"/>
<path d="M8361 7566 c-8 -9 -20 -15 -27 -12 -7 3 -27 -14 -45 -37 -18 -23 -37
-46 -42 -52 -15 -15 3 17 21 38 8 9 12 20 9 23 -11 12 -35 -16 -58 -66 -22
-49 -41 -60 -105 -60 -13 0 -24 -5 -24 -11 0 -6 18 -10 43 -9 96 4 104 2 110
-27 3 -16 13 -37 22 -48 16 -20 16 -19 11 5 -16 67 -17 76 -4 45 20 -47 36
-70 43 -63 3 3 -1 23 -9 43 -21 49 -20 55 7 55 16 0 28 -9 35 -26 7 -14 16
-23 21 -20 4 3 13 -5 19 -19 12 -25 52 -53 52 -36 0 6 -11 27 -25 47 -14 20
-25 41 -25 45 0 21 17 5 45 -42 32 -54 52 -75 62 -66 3 4 -9 29 -27 57 -18 28
-31 52 -29 54 5 5 47 9 70 7 9 -1 30 -23 47 -51 17 -27 36 -50 42 -50 15 0 13
7 -16 56 -18 30 -22 44 -12 44 7 0 26 -23 43 -50 16 -28 33 -50 37 -50 12 0
10 7 -12 50 -25 50 -25 49 8 45 138 -16 154 -17 148 -6 -4 6 -17 11 -29 11
-22 1 -22 1 -2 16 11 8 27 19 35 24 8 5 12 12 8 15 -4 4 -26 -3 -50 -17 -41
-23 -88 -27 -88 -7 0 5 5 9 11 9 6 0 9 8 7 18 -2 11 9 26 31 41 19 14 30 26
24 28 -15 5 -83 -30 -123 -64 -25 -21 -41 -27 -69 -24 -20 1 -38 5 -40 7 -3 2
10 19 27 37 63 65 30 65 -39 0 -27 -25 -52 -43 -56 -39 -4 3 9 20 28 36 19 16
29 29 22 30 -6 0 -30 -16 -53 -35 -23 -19 -47 -35 -53 -35 -12 0 65 77 118
117 16 13 26 25 23 28 -6 6 -79 -45 -127 -89 -19 -17 -31 -25 -27 -18 4 6 2
12 -4 12 -6 0 -16 -11 -22 -25 -7 -17 -19 -25 -35 -25 l-24 0 22 39 c12 21 33
51 46 65 13 15 23 32 21 37 -2 7 -9 4 -17 -5z"/>
<path d="M8900 7534 l-35 -14 38 4 c22 3 35 1 32 -5 -4 -5 4 -9 17 -10 23 0
23 0 -2 -11 l-25 -11 24 -5 c12 -2 34 -1 48 3 l26 6 -24 22 c-13 12 -27 21
-31 20 -5 -2 -8 2 -8 7 0 13 -18 12 -60 -6z"/>
<path d="M1795 7500 c-4 -12 -5 -24 -2 -27 3 -2 8 5 12 17 4 12 5 24 2 27 -3
2 -8 -5 -12 -17z"/>
<path d="M1747 7473 c-4 -3 -7 -11 -7 -17 0 -6 5 -5 12 2 6 6 9 14 7 17 -3 3
-9 2 -12 -2z"/>
<path d="M1738 7435 c-4 -4 -4 -13 -1 -21 3 -8 0 -14 -6 -14 -6 0 -11 -11 -11
-25 0 -16 6 -25 16 -25 10 0 14 6 10 15 -3 8 -1 15 4 15 6 0 10 -9 10 -20 0
-14 7 -20 23 -20 19 1 20 2 7 13 -8 7 -16 19 -18 27 -2 8 -7 17 -12 20 -4 3
-9 13 -11 23 -2 11 -7 16 -11 12z"/>
<path d="M1885 7430 c3 -5 8 -10 11 -10 2 0 4 5 4 10 0 6 -5 10 -11 10 -5 0
-7 -4 -4 -10z"/>
<path d="M9067 7409 c-6 -21 9 -30 71 -46 24 -6 26 -5 13 10 -7 10 -20 17 -27
17 -8 0 -14 6 -14 14 0 8 -7 17 -16 20 -22 8 -21 9 -27 -15z"/>
<path d="M1810 7355 c0 -5 5 -17 10 -25 5 -8 10 -10 10 -5 0 6 -5 17 -10 25
-5 8 -10 11 -10 5z"/>
<path d="M1701 7314 c0 -11 3 -14 6 -6 3 7 2 16 -1 19 -3 4 -6 -2 -5 -13z"/>
<path d="M1732 7293 c0 -16 11 -38 24 -52 29 -28 31 -13 7 40 -21 46 -30 49
-31 12z"/>
<path d="M1804 7260 c3 -14 6 -28 6 -31 0 -4 7 -9 15 -12 12 -5 12 -2 3 21
-17 39 -32 53 -24 22z"/>
<path d="M1687 7253 c-4 -3 -7 -11 -7 -17 0 -6 5 -5 12 2 6 6 9 14 7 17 -3 3
-9 2 -12 -2z"/>
<path d="M1702 7196 c2 -20 0 -36 -5 -36 -4 0 -5 -5 -1 -11 4 -7 10 -7 16 -1
18 18 38 1 38 -31 0 -36 5 -33 13 9 5 27 2 31 -24 42 -24 8 -29 15 -24 31 3
10 1 23 -6 27 -8 5 -10 -4 -7 -30z"/>
<path d="M5177 7187 c54 -58 108 -165 148 -294 32 -102 32 -103 11 -103 -19
-1 -19 -2 6 -15 16 -9 33 -32 44 -60 20 -55 72 -112 109 -121 18 -4 46 0 75
10 58 21 109 14 141 -20 l22 -23 -27 -12 c-14 -7 -26 -16 -26 -21 0 -12 27
-10 50 5 27 16 37 0 32 -48 -5 -42 -17 -43 -67 -10 -52 36 -136 45 -300 33
-66 -5 -86 -2 -117 13 -52 26 -69 23 -33 -6 44 -36 22 -42 -42 -11 -45 22 -54
24 -42 9 8 -10 21 -24 29 -30 13 -11 13 -14 1 -22 -14 -9 -171 28 -212 50 -11
5 -25 9 -32 6 -19 -6 36 -37 110 -61 61 -21 65 -24 46 -35 -27 -14 -92 -14
-167 0 -32 6 -60 8 -63 5 -8 -8 62 -34 113 -42 47 -7 47 -7 26 -24 -18 -15
-36 -17 -112 -12 -64 3 -90 1 -90 -7 0 -7 23 -11 64 -11 36 0 67 -4 70 -9 3
-5 -10 -19 -28 -32 -54 -36 -31 -43 31 -9 31 16 58 29 59 27 2 -2 -14 -30 -36
-63 -21 -32 -37 -61 -34 -63 8 -8 37 25 90 106 52 77 77 103 103 103 5 0 -6
-33 -25 -74 -19 -41 -34 -81 -34 -88 1 -21 29 21 61 90 32 71 69 112 99 112
20 0 19 -4 -16 -70 -20 -39 -34 -73 -31 -76 7 -8 44 48 73 110 14 31 32 56 40
56 12 0 13 -4 3 -21 -15 -29 -59 -159 -59 -176 0 -31 20 1 41 65 46 141 71
162 191 162 76 0 78 0 85 -27 l7 -28 6 25 c5 21 11 24 35 21 45 -5 117 -31
144 -52 13 -11 30 -19 37 -19 7 0 40 -26 74 -57 48 -44 64 -53 70 -43 9 14 -3
38 -57 120 -29 43 -29 48 0 53 18 3 12 8 -31 27 l-54 23 26 14 c14 8 26 18 26
23 0 13 -37 13 -45 0 -14 -22 -27 -9 -22 20 7 32 0 60 -14 60 -5 0 -9 -14 -9
-30 0 -28 -2 -30 -21 -20 -31 17 -58 68 -52 99 14 61 7 176 -12 215 -25 52
-162 184 -225 216 -14 7 -44 32 -66 57 -36 38 -47 44 -80 42 -22 0 -66 2 -99
6 l-60 8 42 -46z m248 -204 c8 -37 12 -69 9 -72 -2 -3 -17 8 -32 23 -21 22
-23 27 -8 22 16 -6 18 -3 12 26 -4 18 -10 49 -12 68 -9 60 15 9 31 -67z m80
-81 c6 -72 -9 -31 -18 48 -5 40 -4 49 3 32 6 -13 12 -49 15 -80z m73 -47 c0
-33 -4 -71 -8 -85 -5 -16 -8 14 -8 80 0 64 3 97 8 85 5 -11 8 -47 8 -80z
m-130 -1 c29 -18 97 -103 88 -111 -2 -3 -12 7 -21 21 -10 15 -40 44 -68 66
-49 40 -49 55 1 24z m170 -108 c-8 -57 -16 -86 -25 -86 -7 0 -13 5 -13 10 0 6
5 10 10 10 6 0 10 19 10 43 0 44 18 122 26 114 3 -2 -1 -43 -8 -91z m-76 -51
c16 -14 26 -25 21 -25 -11 0 -73 38 -73 45 0 12 25 3 52 -20z m38 5 c0 -5 -2
-10 -4 -10 -3 0 -8 5 -11 10 -3 6 -1 10 4 10 6 0 11 -4 11 -10z m269 -273 c22
-30 41 -57 41 -61 0 -8 -46 21 -86 54 -24 21 -28 30 -20 43 6 9 14 17 17 17 4
0 25 -24 48 -53z"/>
<path d="M8690 7221 c0 -5 9 -19 20 -32 22 -28 28 -6 6 24 -14 18 -26 22 -26
8z"/>
<path d="M8420 7167 c1 -17 36 -57 50 -57 11 0 51 -28 94 -66 23 -20 86 -36
86 -22 0 15 -53 97 -63 98 -5 0 -6 -13 -2 -30 9 -42 -1 -37 -25 10 -12 23 -25
38 -30 35 -5 -3 -13 3 -19 12 -5 10 -13 15 -17 11 -4 -5 -14 -2 -22 4 -20 17
-52 20 -52 5z"/>
<path d="M9020 7150 c0 -5 7 -10 15 -10 8 0 15 5 15 10 0 6 -7 10 -15 10 -8 0
-15 -4 -15 -10z"/>
<path d="M8977 7142 c-11 -2 -16 -10 -13 -17 4 -10 -4 -12 -32 -9 -36 5 -36 5
-17 -12 22 -18 21 -18 -47 3 -30 9 -15 -13 24 -33 30 -16 64 -12 53 6 -4 6 5
10 19 10 14 0 26 5 26 10 0 6 6 10 14 10 8 0 17 4 21 9 7 13 -25 29 -48 23z"/>
<path d="M1680 7115 c0 -8 -4 -15 -10 -15 -5 0 -10 -5 -10 -11 0 -5 5 -7 10
-4 6 3 10 1 10 -4 0 -6 -4 -11 -10 -11 -5 0 -10 -4 -10 -10 0 -5 7 -10 15 -10
7 0 19 -8 24 -17 9 -15 10 -14 11 10 0 15 -5 27 -11 27 -7 0 -9 11 -5 30 3 17
1 30 -4 30 -6 0 -10 -7 -10 -15z"/>
<path d="M8695 7110 c8 -24 0 -25 -37 -6 -33 18 -37 4 -11 -34 23 -35 33 -39
59 -30 12 5 25 6 28 3 3 -3 13 0 21 7 14 12 12 17 -17 47 -36 37 -52 42 -43
13z"/>
<path d="M1641 7074 c0 -11 3 -14 6 -6 3 7 2 16 -1 19 -3 4 -6 -2 -5 -13z"/>
<path d="M1631 6979 c2 -42 9 -75 21 -96 23 -39 28 -41 28 -9 0 15 -7 26 -17
28 -14 2 -18 14 -19 51 -2 53 5 58 27 21 13 -21 17 -23 22 -10 4 10 1 16 -8
16 -8 0 -15 4 -15 8 0 5 -9 19 -20 32 l-21 24 2 -65z"/>
<path d="M7735 7022 c64 -30 137 -44 165 -33 24 9 23 10 -9 10 -19 1 -42 7
-50 15 -9 8 -45 17 -81 20 l-65 7 40 -19z"/>
<path d="M1607 6913 c-4 -3 -7 -16 -6 -27 0 -19 1 -19 10 3 10 24 8 36 -4 24z"/>
<path d="M1725 6910 c3 -5 8 -10 11 -10 2 0 4 5 4 10 0 6 -5 10 -11 10 -5 0
-7 -4 -4 -10z"/>
<path d="M1828 6903 c7 -3 16 -2 19 1 4 3 -2 6 -13 5 -11 0 -14 -3 -6 -6z"/>
<path d="M6085 6873 c-27 -8 -54 -19 -60 -25 -7 -8 -6 -9 3 -4 27 16 10 -14
-20 -33 -40 -25 -16 -29 38 -6 20 8 40 13 44 10 8 -5 27 16 48 53 14 25 13 26
-53 5z"/>
<path d="M1630 6861 c0 -6 5 -13 10 -16 6 -3 10 1 10 9 0 9 -4 16 -10 16 -5 0
-10 -4 -10 -9z"/>
<path d="M1590 6851 c0 -5 6 -11 13 -14 8 -3 14 1 14 9 0 8 -6 14 -14 14 -7 0
-13 -4 -13 -9z"/>
<path d="M5171 6820 c-12 -17 -20 -39 -18 -48 4 -14 6 -13 12 6 4 12 13 22 19
22 6 0 13 11 14 25 2 32 1 31 -27 -5z"/>
<path d="M5113 6820 c1 -11 7 -20 13 -20 7 0 10 8 7 20 -3 11 -9 20 -14 20 -4
0 -7 -9 -6 -20z"/>
<path d="M5247 6817 c-4 -12 15 -57 24 -57 4 0 9 8 11 18 5 19 -28 58 -35 39z"/>
<path d="M1665 6810 c-3 -5 -2 -10 4 -10 5 0 12 -10 14 -22 3 -17 5 -14 6 10
1 31 -11 43 -24 22z"/>
<path d="M1721 6798 c-5 -13 -5 -32 -1 -43 8 -22 40 -34 40 -15 0 6 -4 9 -9 6
-11 -7 -25 49 -16 64 3 5 4 10 0 10 -3 0 -9 -10 -14 -22z"/>
<path d="M1596 6786 c6 -25 4 -28 -10 -23 -10 4 -16 1 -16 -9 0 -17 49 -12 61
7 5 9 12 8 24 -4 20 -21 26 -21 19 -2 -4 8 -10 15 -15 15 -5 0 -9 6 -9 14 0
18 -27 29 -36 14 -4 -7 -10 -6 -16 3 -5 9 -6 4 -2 -15z"/>
<path d="M1760 6781 c0 -5 7 -11 15 -15 8 -3 15 -1 15 3 0 5 -7 11 -15 15 -8
3 -15 1 -15 -3z"/>
<path d="M5036 6775 c4 -8 8 -15 10 -15 2 0 4 7 4 15 0 8 -4 15 -10 15 -5 0
-7 -7 -4 -15z"/>
<path d="M1570 6700 c0 -13 11 -13 30 0 12 8 11 10 -7 10 -13 0 -23 -4 -23
-10z"/>
<path d="M1610 6671 c0 -5 7 -11 15 -15 8 -3 15 -1 15 3 0 5 -7 11 -15 15 -8
3 -15 1 -15 -3z"/>
<path d="M1555 6655 c-3 -8 -7 -21 -9 -29 -7 -21 13 -86 26 -86 6 0 8 10 4 24
-3 13 -3 26 2 29 4 2 1 2 -5 1 -8 -2 -13 8 -13 26 0 17 5 30 10 30 6 0 10 5
10 10 0 16 -20 12 -25 -5z"/>
<path d="M1640 6559 c0 -5 5 -7 10 -4 6 3 10 8 10 11 0 2 -4 4 -10 4 -5 0 -10
-5 -10 -11z"/>
<path d="M7110 6521 c0 -6 4 -13 10 -16 6 -3 7 1 4 9 -7 18 -14 21 -14 7z"/>
<path d="M1595 6510 c3 -5 8 -10 11 -10 2 0 4 5 4 10 0 6 -5 10 -11 10 -5 0
-7 -4 -4 -10z"/>
<path d="M1524 6476 c-3 -14 -3 -30 1 -35 8 -14 35 -14 35 0 0 5 -5 7 -12 3
-8 -5 -9 -2 -4 12 12 30 12 36 -1 41 -7 2 -15 -7 -19 -21z"/>
<path d="M1592 6478 c3 -7 13 -15 23 -17 17 -3 17 -2 3 13 -20 19 -31 21 -26
4z"/>
<path d="M1626 6433 c5 -5 12 -12 16 -18 4 -6 8 -2 8 8 0 9 -7 17 -17 17 -9 0
-12 -3 -7 -7z"/>
<path d="M5549 6384 c-8 -10 -36 -32 -64 -50 -71 -46 -119 -99 -159 -177 -56
-106 -47 -157 40 -252 74 -80 101 -122 114 -174 l11 -49 45 48 c25 26 57 53
73 59 75 32 191 221 191 313 -1 80 -61 172 -152 234 -24 15 -52 36 -64 46 -20
18 -22 18 -35 2z m96 -184 c44 -71 81 -148 62 -130 -19 18 -104 154 -123 198
-27 59 -32 94 -7 47 8 -16 39 -68 68 -115z m-115 77 c0 -1 -35 -36 -77 -77
-81 -79 -74 -62 12 27 43 45 65 62 65 50z m16 -133 c-19 -32 -49 -70 -68 -83
-32 -24 -31 -23 8 21 23 24 47 62 54 84 17 52 21 57 32 46 6 -6 -4 -31 -26
-68z m72 -104 c11 -41 19 -76 18 -78 -2 -1 -13 13 -24 31 -23 40 -43 123 -34
145 7 19 10 10 40 -98z m-89 -56 c-44 -87 -50 -72 -8 21 19 41 36 68 37 59 2
-9 -11 -45 -29 -80z"/>
<path d="M1511 6351 c-7 -5 -11 -15 -9 -22 3 -10 8 -7 17 9 13 24 12 26 -8 13z"/>
<path d="M1544 6345 c-8 -19 4 -35 24 -34 14 1 14 2 -1 6 -13 3 -17 11 -14 24
6 22 -1 26 -9 4z"/>
<path d="M7016 6293 c-10 -65 -7 -94 15 -121 l22 -27 -5 28 c-5 27 6 38 15 15
3 -8 6 -7 6 4 1 9 -3 19 -8 22 -5 3 -11 15 -14 26 -9 37 20 3 64 -72 43 -73
69 -92 44 -30 -30 71 -109 192 -126 192 -4 0 -9 -17 -13 -37z"/>
<path d="M7330 6295 c0 -3 19 -26 41 -50 32 -35 40 -51 37 -70 -7 -35 10 -42
22 -11 11 31 11 31 60 6 38 -19 40 -23 40 -65 0 -25 5 -45 10 -45 6 0 10 16
10 35 0 22 5 35 13 35 26 -1 93 -46 94 -62 1 -33 3 -38 13 -38 6 0 10 12 10
26 0 24 3 25 48 24 61 -2 73 0 42 9 -14 4 -24 13 -22 19 3 15 -23 15 -46 1
-14 -9 -30 -8 -69 5 -58 19 -95 45 -75 52 27 12 9 24 -36 24 -51 0 -98 26
-151 84 -23 24 -41 33 -41 21z"/>
<path d="M1490 6274 c0 -8 5 -12 10 -9 6 4 8 11 5 16 -9 14 -15 11 -15 -7z"/>
<path d="M6610 6249 c0 -57 20 -160 30 -154 4 2 3 28 -1 57 -10 65 -4 73 18
22 18 -42 22 -126 9 -188 -7 -30 -6 -38 4 -34 16 5 38 62 39 100 1 32 -64 207
-85 228 -12 12 -14 9 -14 -31z"/>
<path d="M6165 6245 c-22 -10 -41 -35 -75 -99 -25 -47 -48 -86 -52 -86 -4 0
-10 17 -13 38 -16 92 -25 112 -49 112 -23 0 -23 0 -10 -57 8 -32 13 -98 13
-146 -1 -98 9 -71 -160 -425 -65 -136 -151 -286 -183 -317 -12 -11 -30 -33
-41 -49 -11 -16 -32 -40 -47 -54 -16 -14 -28 -31 -28 -38 0 -6 -13 -26 -30
-44 -16 -18 -30 -38 -30 -46 0 -8 -4 -14 -10 -14 -16 0 -12 62 5 74 21 15 38
131 33 222 -3 69 -15 105 -25 76 -4 -10 -9 -7 -20 7 -18 27 -37 18 -22 -10 6
-12 9 -23 6 -25 -2 -2 -15 16 -28 41 -13 25 -27 45 -31 45 -16 0 -7 -30 27
-95 39 -74 62 -162 45 -179 -7 -7 -10 -3 -10 12 0 35 -27 92 -44 92 -14 0 -56
90 -90 195 -18 54 -32 82 -39 75 -3 -3 11 -52 29 -109 37 -111 38 -138 5 -73
-18 36 -41 62 -41 48 0 -2 29 -65 65 -138 36 -73 72 -163 81 -200 17 -70 13
-137 -9 -139 -7 0 -50 -47 -97 -105 -120 -149 -235 -270 -358 -377 -59 -50
-108 -95 -110 -99 -2 -5 -8 -8 -14 -8 -34 0 -44 -62 -11 -74 11 -4 13 -2 9 9
-3 8 -9 22 -12 30 -3 8 -1 15 5 15 6 0 11 -4 11 -10 0 -5 7 -10 15 -10 10 0
15 -10 16 -27 0 -16 3 -22 6 -15 4 10 8 10 19 2 18 -16 172 107 308 245 177
180 436 521 413 544 -7 7 -1 20 21 42 18 18 32 41 32 52 0 11 20 49 43 86 24
36 60 91 80 121 44 67 102 124 182 178 l60 41 37 -21 c54 -30 127 -97 145
-131 8 -17 18 -65 20 -109 7 -93 23 -104 23 -15 l0 62 20 -25 c17 -20 20 -39
19 -95 -2 -91 -1 -97 11 -90 6 4 10 12 9 18 -1 7 -1 32 0 56 1 37 3 42 16 31
8 -7 15 -24 15 -39 0 -14 4 -42 9 -61 5 -19 12 -64 15 -100 3 -36 5 -66 6 -68
0 -2 5 0 10 3 6 3 10 38 10 78 0 49 3 68 10 61 19 -19 60 -148 60 -191 0 -23
5 -45 10 -48 18 -11 11 110 -10 177 -25 78 -25 81 1 41 20 -31 39 -43 39 -25
0 18 -60 99 -104 142 -25 24 -46 47 -46 51 0 4 27 -3 60 -17 67 -27 70 -28 70
-15 0 9 -65 48 -152 92 -33 17 -58 39 -43 39 3 0 37 -16 75 -35 85 -43 103
-44 66 -6 -28 30 -72 54 -156 87 -25 10 -66 37 -91 60 -25 23 -64 54 -88 68
-23 15 -39 31 -36 36 11 18 -10 10 -58 -20 -53 -33 -72 -38 -63 -15 3 9 0 15
-10 15 -11 0 -15 6 -11 18 14 47 116 263 211 446 58 113 106 210 106 216 0 13
-7 12 -45 -5z m-775 -1039 c0 -6 -7 -1 -15 10 -8 10 -15 23 -15 28 0 6 7 1 15
-10 8 -10 15 -23 15 -28z m-514 -895 c-4 -5 0 -11 6 -14 7 -2 9 -8 5 -13 -4
-5 -12 -2 -17 6 -13 20 -12 30 1 30 5 0 8 -4 5 -9z"/>
<path d="M1492 6224 c15 -15 18 -15 39 0 13 9 19 16 13 16 -5 0 -15 -5 -21
-11 -8 -8 -13 -8 -17 0 -4 6 -12 11 -19 11 -7 0 -5 -7 5 -16z"/>
<path d="M1470 6176 c0 -9 5 -16 10 -16 6 0 10 4 10 9 0 6 -4 13 -10 16 -5 3
-10 -1 -10 -9z"/>
<path d="M1641 6174 c0 -11 3 -14 6 -6 3 7 2 16 -1 19 -3 4 -6 -2 -5 -13z"/>
<path d="M1665 6180 c4 -6 11 -8 16 -5 14 9 11 15 -7 15 -8 0 -12 -5 -9 -10z"/>
<path d="M6581 6174 c0 -11 3 -14 6 -6 3 7 2 16 -1 19 -3 4 -6 -2 -5 -13z"/>
<path d="M1487 6150 c-15 -16 -27 -38 -27 -47 1 -17 1 -17 11 0 5 9 16 17 24
17 18 0 36 32 26 48 -5 9 -15 3 -34 -18z"/>
<path d="M1577 6154 c-4 -4 -7 -14 -7 -23 0 -11 3 -12 11 -4 6 6 10 16 7 23
-2 6 -7 8 -11 4z"/>
<path d="M1563 6050 c-1 -33 3 -60 8 -60 5 0 9 7 9 15 0 8 5 15 10 15 6 0 10
-5 10 -12 0 -6 3 -8 6 -5 4 4 1 14 -7 23 -14 17 -15 20 -17 62 -4 47 -17 19
-19 -38z"/>
<path d="M1620 6096 c0 -10 9 -16 21 -16 24 0 21 23 -4 28 -10 2 -17 -3 -17
-12z"/>
<path d="M1480 6080 c-6 -12 -9 -28 -6 -36 3 -8 -1 -14 -11 -14 -11 0 -13 -3
-5 -13 20 -24 82 -10 82 19 0 9 -11 14 -32 14 -30 0 -31 1 -12 14 14 11 16 17
7 26 -8 9 -14 7 -23 -10z m50 -50 c0 -5 -9 -10 -21 -10 -11 0 -17 5 -14 10 3
6 13 10 21 10 8 0 14 -4 14 -10z"/>
<path d="M1526 6092 c-3 -5 1 -15 9 -22 16 -14 20 -3 6 19 -5 8 -11 9 -15 3z"/>
<path d="M1676 6092 c-3 -6 -1 -14 5 -17 14 -9 20 -2 10 14 -6 8 -11 9 -15 3z"/>
<path d="M1770 6049 c0 -5 5 -7 10 -4 6 3 10 8 10 11 0 2 -4 4 -10 4 -5 0 -10
-5 -10 -11z"/>
<path d="M1736 6021 c-4 -6 -3 -11 3 -11 5 0 13 -9 16 -21 4 -11 9 -18 12 -16
2 3 -2 18 -10 33 -9 17 -17 23 -21 15z"/>
<path d="M1716 5985 c-3 -9 1 -23 9 -31 13 -14 15 -13 15 3 0 10 -4 24 -9 31
-7 11 -9 10 -15 -3z"/>
<path d="M1447 5983 c-4 -3 -7 -13 -7 -22 1 -13 3 -13 11 2 11 19 8 33 -4 20z"/>
<path d="M1487 5983 c-10 -9 -8 -43 2 -43 5 0 9 11 9 25 0 27 -1 28 -11 18z"/>
<path d="M1535 5965 c-4 -11 -11 -28 -16 -38 -5 -10 -7 -23 -3 -28 7 -12 -14
-1 -53 27 -21 15 -22 15 -29 -10 -3 -15 -4 -40 0 -57 3 -16 2 -28 -3 -25 -14
9 -22 -106 -8 -122 9 -11 7 -17 -6 -27 -20 -14 -22 -41 -4 -48 9 -4 9 -8 -2
-15 -7 -5 -10 -15 -7 -21 4 -6 2 -11 -3 -11 -6 0 -11 -9 -11 -21 0 -12 5 -19
12 -17 16 6 33 -11 40 -40 8 -29 -13 -25 -27 6 -12 26 -25 29 -26 5 -6 -84 -4
-88 29 -84 6 1 12 -4 12 -11 0 -17 -48 -40 -53 -25 -1 5 -9 -51 -16 -125 l-13
-135 -72 -2 c-81 -2 -206 31 -206 55 0 8 -9 23 -21 35 -35 35 -99 6 -99 -46 0
-32 53 -89 102 -109 23 -10 52 -23 63 -29 19 -10 55 -13 169 -16 l49 -1 -6
-120 c-4 -98 -2 -120 9 -120 8 0 14 -4 14 -10 0 -5 -6 -10 -14 -10 -16 0 -26
-108 -26 -291 0 -148 14 -236 40 -244 30 -10 70 6 75 29 20 94 50 309 48 346
-2 34 -12 90 -18 100 -9 14 15 23 29 11 11 -9 15 -2 19 34 4 25 2 56 -3 71
-13 33 -13 32 7 30 12 -1 19 7 21 23 2 15 0 21 -7 17 -16 -10 -14 -1 9 40 12
20 19 38 18 40 -7 6 -48 -8 -48 -17 0 -5 7 -5 17 -2 11 4 14 3 9 -5 -4 -7 -14
-12 -22 -12 -17 0 -44 -23 -44 -38 0 -5 -9 -12 -20 -15 -11 -3 -20 -2 -20 2 0
3 9 12 20 19 25 15 26 49 3 55 -13 3 -12 5 5 6 15 1 21 5 16 13 -4 7 -3 8 5 4
6 -4 9 -12 6 -17 -9 -14 11 -11 23 4 5 7 6 21 1 32 -4 11 -8 14 -8 7 -1 -7 -6
-10 -11 -7 -6 3 -7 17 -4 31 6 25 -10 35 -19 12 -3 -7 -6 -3 -6 10 -1 19 3 22
19 17 14 -4 22 -1 26 10 4 9 13 14 21 11 12 -5 13 0 8 25 -7 33 -5 33 54 11 9
-3 12 0 9 9 -3 8 -12 13 -22 11 -19 -3 -20 2 -6 28 8 14 6 18 -7 16 -9 -2 -20
-11 -24 -22 -5 -13 -8 -14 -8 -4 -1 12 -3 13 -10 1 -5 -7 -14 -12 -21 -9 -9 3
-8 8 4 20 9 9 16 24 16 32 0 16 16 21 56 17 12 -1 26 5 33 13 9 11 4 12 -31 6
-24 -5 -43 -8 -43 -7 0 1 -7 16 -16 34 -13 23 -14 34 -6 42 16 16 -12 34 -30
19 -10 -8 -12 -5 -11 15 2 21 5 24 16 15 10 -9 16 -8 22 2 6 10 2 17 -13 25
-18 9 -23 8 -28 -4 -4 -9 -5 -19 -2 -23 6 -11 -25 -10 -31 1 -8 12 17 61 31
61 8 0 10 15 6 48 -2 26 -2 44 2 40 4 -4 8 -20 9 -35 2 -15 8 -39 16 -52 11
-22 13 -23 22 -7 9 16 11 16 28 1 11 -10 20 -12 24 -6 4 5 -2 12 -11 16 -10 3
-27 12 -37 20 -15 12 -17 17 -7 29 15 18 6 37 -14 29 -9 -3 -15 1 -16 8 -3 53
-14 69 -32 45 -12 -17 -14 -17 -28 0 -10 13 -11 18 -2 21 7 2 9 11 6 19 -4 12
0 14 20 9 14 -4 28 -2 31 4 4 7 -1 11 -13 11 -11 0 -25 9 -31 19 -13 26 -13
28 6 35 11 4 14 0 12 -16 -2 -11 2 -23 9 -25 7 -3 11 9 10 31 -1 21 -6 36 -13
36 -6 0 -14 9 -17 20 -3 11 -1 20 4 20 5 0 9 -7 9 -15 0 -8 3 -14 8 -14 4 1 9
0 12 -1 25 -10 53 -4 58 12 2 10 11 18 19 18 8 0 11 5 8 10 -10 16 -23 12 -30
-10 -4 -12 -15 -20 -30 -20 -24 0 -41 25 -24 35 5 4 7 10 4 15 -3 5 0 12 6 16
6 3 15 0 20 -7 6 -10 9 -8 9 9 0 12 5 22 11 22 5 0 7 -4 4 -10 -3 -5 -1 -10 4
-10 6 0 11 4 11 9 0 14 -26 32 -35 23 -4 -4 -4 4 0 18 4 14 11 27 15 30 5 3
10 16 11 29 6 36 31 40 29 5 -1 -16 -1 -32 0 -36 1 -5 3 -13 4 -19 0 -7 12
-16 26 -21 l24 -9 -23 24 c-14 16 -19 27 -12 32 6 3 11 13 11 21 0 9 7 22 15
30 23 24 18 39 -15 41 -18 1 -30 -3 -30 -10 0 -8 -4 -7 -10 3 -7 12 -10 11
-15 -5z m-59 -82 c-4 -4 -11 -1 -16 7 -16 25 -11 35 7 17 9 -9 13 -20 9 -24z
m-14 -75 c-7 -7 -12 -8 -12 -2 0 14 12 26 19 19 2 -3 -1 -11 -7 -17z m-2 -35
c0 -13 -3 -13 -15 -3 -8 7 -15 16 -15 21 0 5 7 6 15 3 8 -4 15 -13 15 -21z
m-56 -402 c3 -5 -1 -11 -9 -14 -9 -4 -12 -1 -8 9 6 16 10 17 17 5z m26 -31 c0
-5 -4 -10 -9 -10 -6 0 -7 -17 -5 -37 l5 -38 -20 23 c-18 21 -19 26 -6 39 8 8
15 19 15 24 0 5 5 9 10 9 6 0 10 -4 10 -10z m50 -50 c0 -11 5 -20 10 -20 6 0
10 -6 10 -14 0 -9 -13 -14 -39 -14 -33 -1 -39 2 -34 16 7 20 35 51 46 51 4 1
7 -8 7 -19z m-90 -42 c0 -19 -2 -20 -10 -8 -13 19 -13 30 0 30 6 0 10 -10 10
-22z m22 -50 c-11 -11 -32 -3 -32 12 0 4 9 6 21 3 13 -4 17 -9 11 -15z m68 -4
c0 -9 -5 -12 -11 -8 -6 3 -15 0 -20 -7 -7 -11 -9 -9 -9 8 0 21 17 35 33 26 4
-2 7 -11 7 -19z m-10 -66 c0 -11 4 -16 10 -13 6 3 7 -1 4 -9 -8 -21 -24 -10
-24 15 0 10 -4 19 -10 19 -5 0 -10 -6 -10 -14 0 -32 -16 -23 -17 9 -1 32 0 33
23 23 13 -6 24 -20 24 -30z m-66 3 c6 -10 -22 -37 -29 -29 -8 7 5 38 15 38 5
0 11 -4 14 -9z m-290 -33 c-3 -5 -12 -4 -20 3 -19 16 -18 18 6 12 11 -3 17 -9
14 -15z m192 -4 c-4 -9 -9 -15 -11 -12 -3 3 -3 13 1 22 4 9 9 15 11 12 3 -3 3
-13 -1 -22z m127 -11 c-7 -2 -19 -2 -25 0 -7 3 -2 5 12 5 14 0 19 -2 13 -5z
m-59 -34 c-10 -16 -24 -9 -24 12 0 18 2 19 15 9 8 -7 12 -16 9 -21z m46 -21
c0 10 4 10 20 0 27 -17 26 -31 -2 -23 -16 6 -20 4 -15 -9 3 -8 2 -18 -3 -21
-6 -4 -10 0 -10 7 0 7 -3 24 -6 38 -4 20 -3 22 5 10 7 -10 11 -11 11 -2z m-55
-38 c3 -5 1 -10 -4 -10 -6 0 -11 5 -11 10 0 6 2 10 4 10 3 0 8 -4 11 -10z
m133 -90 c-2 -30 -12 -38 -23 -20 -5 8 14 50 23 50 1 0 1 -13 0 -30z m-18 -71
c0 -5 -4 -9 -10 -9 -5 0 -10 7 -10 16 0 8 5 12 10 9 6 -3 10 -10 10 -16z m-90
-69 c0 -5 -4 -10 -10 -10 -5 0 -10 5 -10 10 0 6 5 10 10 10 6 0 10 -4 10 -10z
m46 -107 c-11 -11 -19 6 -11 24 8 17 8 17 12 0 3 -10 2 -21 -1 -24z"/>
<path d="M1445 5271 c-3 -5 -1 -12 5 -16 5 -3 10 1 10 9 0 18 -6 21 -15 7z"/>
<path d="M1685 5950 c-3 -5 -1 -10 4 -10 6 0 11 5 11 10 0 6 -2 10 -4 10 -3 0
-8 -4 -11 -10z"/>
<path d="M1625 5941 c-3 -5 -1 -12 5 -16 5 -3 10 1 10 9 0 18 -6 21 -15 7z"/>
<path d="M1657 5916 c-3 -8 1 -13 11 -12 12 1 16 -6 14 -24 -2 -20 -1 -22 7
-10 16 22 13 38 -8 49 -14 8 -20 7 -24 -3z"/>
<path d="M1715 5870 c4 -6 11 -8 16 -5 14 9 11 15 -7 15 -8 0 -12 -5 -9 -10z"/>
<path d="M1570 5821 c0 -5 5 -13 10 -16 6 -3 10 -2 10 4 0 5 -4 13 -10 16 -5
3 -10 2 -10 -4z"/>
<path d="M1692 5810 c0 -14 2 -19 5 -12 2 6 2 18 0 25 -3 6 -5 1 -5 -13z"/>
<path d="M4915 5804 c28 -8 81 -30 120 -49 66 -33 92 -38 68 -14 -6 6 -9 17
-6 24 5 15 -4 18 -107 40 -95 19 -145 19 -75 -1z"/>
<path d="M1569 5768 c-2 -32 1 -52 10 -61 4 -4 8 10 9 32 1 22 -3 43 -8 46 -6
3 -11 -4 -11 -17z"/>
<path d="M1603 5765 c0 -8 4 -12 9 -9 5 3 6 10 3 15 -9 13 -12 11 -12 -6z"/>
<path d="M1692 5760 c0 -14 2 -19 5 -12 2 6 2 18 0 25 -3 6 -5 1 -5 -13z"/>
<path d="M6349 5754 c-21 -23 -69 -54 -83 -54 -3 0 -3 7 0 15 9 24 -12 18 -48
-14 -18 -15 -55 -40 -83 -54 -48 -25 -48 -26 -15 -20 19 3 37 6 40 7 3 0 35
-18 72 -42 68 -44 128 -68 128 -51 0 5 -12 15 -27 21 -43 18 -123 80 -116 91
7 12 56 4 125 -22 60 -22 148 -29 148 -11 0 6 -10 10 -23 10 -13 0 -54 10 -91
21 -48 15 -64 24 -55 31 12 7 183 3 246 -7 30 -5 40 13 11 20 -36 8 -70 13
-103 15 -20 2 -7 7 39 16 66 13 84 20 75 28 -2 2 -58 -7 -124 -19 -66 -12
-122 -20 -124 -18 -3 2 8 17 24 33 16 17 24 30 19 30 -6 0 -21 -12 -35 -26z"/>
<path d="M1487 5673 c3 -7 9 -10 14 -7 14 8 11 21 -5 21 -8 0 -12 -6 -9 -14z"/>
<path d="M1521 5674 c0 -11 3 -14 6 -6 3 7 2 16 -1 19 -3 4 -6 -2 -5 -13z"/>
<path d="M1571 5662 c-6 -10 -7 -22 -4 -26 3 -3 -2 -6 -13 -6 -16 0 -16 -2 -4
-10 16 -10 33 7 22 25 -3 5 1 4 10 -3 22 -18 36 5 15 25 -13 14 -16 13 -26 -5z"/>
<path d="M1510 5630 c-9 -16 -8 -20 5 -20 8 0 15 9 15 20 0 11 -2 20 -5 20 -2
0 -9 -9 -15 -20z"/>
<path d="M6055 5610 c-3 -6 1 -7 9 -4 18 7 21 14 7 14 -6 0 -13 -4 -16 -10z"/>
<path d="M1630 5590 c0 -11 4 -20 9 -20 5 0 7 9 4 20 -3 11 -7 20 -9 20 -2 0
-4 -9 -4 -20z"/>
<path d="M5380 5561 c0 -21 24 -61 34 -58 21 7 17 34 -9 51 -14 9 -25 12 -25
7z"/>
<path d="M1578 5535 c5 -29 0 -31 -22 -9 -13 12 -16 13 -16 2 0 -8 14 -24 30
-37 l31 -22 -5 28 c-2 15 -5 36 -5 46 -1 9 -5 17 -10 17 -4 0 -6 -11 -3 -25z"/>
<path d="M1630 5544 c0 -6 7 -19 15 -30 8 -10 14 -14 14 -9 0 6 -6 19 -14 29
-8 11 -15 15 -15 10z"/>
<path d="M1617 5506 c6 -10 8 -26 6 -36 -2 -9 3 -22 11 -29 14 -12 16 -10 13
18 -2 18 -12 40 -22 49 -17 16 -17 16 -8 -2z"/>
<path d="M1530 5471 c0 -5 7 -11 15 -15 9 -3 15 0 15 9 0 8 -7 15 -15 15 -8 0
-15 -4 -15 -9z"/>
<path d="M5190 5443 c10 -50 26 -89 40 -98 19 -12 22 2 7 27 -9 12 -21 42 -28
66 -15 52 -29 56 -19 5z"/>
<path d="M1591 5453 c-2 -18 10 -43 20 -43 5 0 9 7 9 16 0 8 -4 13 -9 9 -5 -3
-12 3 -14 12 -3 10 -5 13 -6 6z"/>
<path d="M1530 5400 c0 -5 5 -10 11 -10 5 0 7 5 4 10 -3 6 -8 10 -11 10 -2 0
-4 -4 -4 -10z"/>
<path d="M1558 5333 c7 -3 16 -2 19 1 4 3 -2 6 -13 5 -11 0 -14 -3 -6 -6z"/>
<path d="M1607 5324 c-4 -4 -7 -17 -7 -28 1 -19 1 -20 11 -3 11 19 8 43 -4 31z"/>
<path d="M1510 5303 c0 -11 21 -33 33 -33 4 0 5 5 1 11 -4 8 0 9 15 4 15 -5
21 -2 21 9 0 18 -25 22 -35 6 -5 -8 -11 -7 -21 1 -8 6 -14 7 -14 2z"/>
<path d="M1704 5147 c-1 -30 -1 -30 9 -9 6 14 7 26 1 32 -5 5 -9 -4 -10 -23z"/>
<path d="M1800 5160 c0 -5 5 -10 10 -10 6 0 10 5 10 10 0 6 -4 10 -10 10 -5 0
-10 -4 -10 -10z"/>
<path d="M1770 5129 c0 -5 5 -7 10 -4 6 3 10 8 10 11 0 2 -4 4 -10 4 -5 0 -10
-5 -10 -11z"/>
<path d="M1550 5111 c0 -23 16 -36 25 -21 3 6 -1 17 -9 26 -15 14 -16 14 -16
-5z"/>
<path d="M1530 5073 c0 -5 4 -15 10 -23 11 -18 25 -7 17 15 -6 15 -27 21 -27
8z"/>
<path d="M1477 4689 c4 -13 8 -18 11 -10 2 7 -1 18 -6 23 -8 8 -9 4 -5 -13z"/>
<path d="M4733 4295 c-14 -16 -8 -41 12 -49 9 -3 14 6 17 30 4 36 -8 44 -29
19z"/>
<path d="M4820 4265 c0 -18 -12 -19 -28 -3 -7 7 -12 8 -12 3 0 -6 11 -17 23
-26 21 -16 22 -15 24 12 1 16 0 29 -2 29 -3 0 -5 -7 -5 -15z"/>
<path d="M4700 4240 c0 -6 7 -10 15 -10 8 0 15 2 15 4 0 2 -7 6 -15 10 -8 3
-15 1 -15 -4z"/>
<path d="M4666 4227 c3 -10 9 -15 12 -12 3 3 0 11 -7 18 -10 9 -11 8 -5 -6z"/>
<path d="M4731 4217 c2 -1 13 -9 24 -17 19 -14 19 -14 6 3 -7 9 -18 17 -24 17
-6 0 -8 -1 -6 -3z"/>
<path d="M4641 4164 c0 -11 3 -14 6 -6 3 7 2 16 -1 19 -3 4 -6 -2 -5 -13z"/>
</g>
</svg>
